<?xml version="1.0" encoding="utf-8"?>
<!-- Generator: Adobe Illustrator 23.0.4, SVG Export Plug-In . SVG Version: 6.00 Build 0)  -->
<svg version="1.0" id="Layer_1" xmlns="http://www.w3.org/2000/svg" xmlns:xlink="http://www.w3.org/1999/xlink" x="0px" y="0px"
	 viewBox="0 0 42.52 42.52" enable-background="new 0 0 42.52 42.52" xml:space="preserve">
<path fill="#010101" d="M40.17,0H2.35C1.05,0,0,1.05,0,2.35v37.83c0,1.3,1.05,2.35,2.35,2.35h20.37V26.08h-5.52v-6.44h5.52V14.9
	c0-5.49,3.35-8.48,8.25-8.48c2.35,0,4.36,0.17,4.95,0.25v5.74h-3.38c-2.67,0-3.18,1.27-3.18,3.13v4.1h6.37l-0.83,6.44h-5.54v16.44
	h10.82c1.3,0,2.35-1.05,2.35-2.35c0,0,0,0,0,0V2.35C42.52,1.05,41.47,0,40.17,0z"/>
</svg>
