<?xml version="1.0" encoding="utf-8"?>
<!-- Generator: Adobe Illustrator 23.0.4, SVG Export Plug-In . SVG Version: 6.00 Build 0)  -->
<svg version="1.0" id="Layer_1" xmlns="http://www.w3.org/2000/svg" xmlns:xlink="http://www.w3.org/1999/xlink" x="0px" y="0px"
	 viewBox="0 0 42.52 42.52" enable-background="new 0 0 42.52 42.52" xml:space="preserve">
<g>
	<path d="M21.26,0c-5.77,0-6.5,0.02-8.77,0.13c-2.26,0.1-3.81,0.46-5.16,0.99c-1.4,0.54-2.58,1.27-3.77,2.45
		C2.39,4.75,1.66,5.94,1.12,7.33c-0.53,1.35-0.88,2.9-0.99,5.16C0.02,14.76,0,15.49,0,21.26c0,5.77,0.02,6.5,0.13,8.77
		c0.1,2.26,0.46,3.81,0.99,5.16c0.54,1.4,1.27,2.58,2.45,3.77c1.18,1.18,2.37,1.91,3.77,2.45c1.35,0.53,2.9,0.88,5.16,0.99
		c2.27,0.1,2.99,0.13,8.77,0.13c5.77,0,6.5-0.02,8.77-0.13c2.26-0.1,3.81-0.46,5.16-0.99c1.4-0.54,2.58-1.27,3.77-2.45
		c1.18-1.18,1.91-2.37,2.45-3.77c0.53-1.35,0.88-2.9,0.99-5.16c0.1-2.27,0.13-2.99,0.13-8.77c0-5.77-0.02-6.5-0.13-8.77
		c-0.1-2.26-0.46-3.81-0.99-5.16c-0.54-1.4-1.27-2.58-2.45-3.77c-1.18-1.18-2.37-1.91-3.77-2.45c-1.35-0.53-2.9-0.88-5.16-0.99
		C27.76,0.02,27.03,0,21.26,0L21.26,0L21.26,0z M21.26,3.83c5.68,0,6.35,0.02,8.59,0.12c2.07,0.09,3.2,0.44,3.95,0.73
		c0.99,0.39,1.7,0.85,2.44,1.59c0.74,0.74,1.2,1.45,1.59,2.44c0.29,0.75,0.64,1.87,0.73,3.95c0.1,2.24,0.12,2.91,0.12,8.59
		c0,5.68-0.02,6.35-0.12,8.59c-0.09,2.07-0.44,3.2-0.73,3.95c-0.39,0.99-0.85,1.7-1.59,2.44c-0.74,0.74-1.45,1.2-2.44,1.59
		c-0.75,0.29-1.87,0.64-3.95,0.73c-2.24,0.1-2.91,0.12-8.59,0.12c-5.68,0-6.35-0.02-8.59-0.12c-2.07-0.09-3.2-0.44-3.95-0.73
		c-0.99-0.39-1.7-0.85-2.44-1.59c-0.74-0.74-1.2-1.45-1.59-2.44c-0.29-0.75-0.64-1.87-0.73-3.95c-0.1-2.24-0.12-2.91-0.12-8.59
		c0-5.68,0.02-6.35,0.12-8.59c0.09-2.07,0.44-3.2,0.73-3.95c0.39-0.99,0.85-1.7,1.59-2.44c0.74-0.74,1.45-1.2,2.44-1.59
		c0.75-0.29,1.87-0.64,3.95-0.73C14.91,3.85,15.58,3.83,21.26,3.83"/>
	<path d="M21.26,28.35c-3.91,0-7.09-3.17-7.09-7.09c0-3.91,3.17-7.09,7.09-7.09c3.91,0,7.09,3.17,7.09,7.09
		C28.35,25.17,25.17,28.35,21.26,28.35L21.26,28.35z M21.26,10.34c-6.03,0-10.92,4.89-10.92,10.92c0,6.03,4.89,10.92,10.92,10.92
		c6.03,0,10.92-4.89,10.92-10.92C32.18,15.23,27.29,10.34,21.26,10.34L21.26,10.34z"/>
	<path d="M35.16,9.91c0,1.41-1.14,2.55-2.55,2.55c-1.41,0-2.55-1.14-2.55-2.55c0-1.41,1.14-2.55,2.55-2.55
		C34.02,7.36,35.16,8.5,35.16,9.91L35.16,9.91z"/>
</g>
</svg>
