<?xml version="1.0" encoding="utf-8"?>
<!-- Generator: Adobe Illustrator 23.0.4, SVG Export Plug-In . SVG Version: 6.00 Build 0)  -->
<svg version="1.0" id="Layer_1" xmlns="http://www.w3.org/2000/svg" xmlns:xlink="http://www.w3.org/1999/xlink" x="0px" y="0px"
	 viewBox="0 0 42.52 42.54" enable-background="new 0 0 42.52 42.54" xml:space="preserve">
<g>
	<path d="M2.65,0c12.41,0,24.81,0,37.22,0c0.02,0.01,0.05,0.03,0.07,0.03c1.81,0.51,2.57,1.52,2.57,3.4c0,4.88,0,9.76,0,14.64
		c0,7.1-0.01,14.2,0.01,21.3c0,1.19-0.72,2.44-1.93,2.93c-0.45,0.18-0.91,0.24-1.4,0.24c-7.02,0-14.04,0-21.07,0
		c-4.97,0-9.94,0-14.92,0c-1.22,0-2.17-0.52-2.8-1.57C0.09,40.44,0,39.87,0,39.26c0-9.27,0-18.54,0-27.81c0-2.78-0.01-5.55,0-8.33
		c0.01-1.37,0.68-2.33,1.93-2.88C2.16,0.13,2.41,0.08,2.65,0z M22.82,36.15c0.01-0.23,0.03-0.41,0.03-0.59c0-3.27,0-6.53,0-9.8
		c0-0.91,0.09-1.79,0.4-2.65c0.3-0.82,0.81-1.46,1.62-1.81c1-0.43,2.03-0.48,3.06-0.13c0.56,0.19,1.02,0.53,1.29,1.05
		c0.2,0.37,0.4,0.76,0.47,1.17c0.13,0.76,0.24,1.54,0.25,2.32c0.03,3.29,0.01,6.58,0.01,9.88c0,0.18,0.02,0.36,0.04,0.52
		c0.46,0.11,5.82,0.09,6.16-0.02c0.01-0.14,0.03-0.29,0.03-0.45c0-1.08,0.01-2.17,0-3.25c-0.02-3.04-0.02-6.08-0.07-9.12
		c-0.02-1.23-0.24-2.45-0.65-3.62c-0.56-1.58-1.52-2.82-3.09-3.49c-1.69-0.72-3.46-0.87-5.25-0.55c-1.76,0.32-3.14,1.28-4.16,2.75
		c-0.08,0.12-0.18,0.23-0.27,0.34c-0.03-0.01-0.06-0.03-0.09-0.04c-0.11-0.87,0.04-1.75-0.08-2.6c-0.41-0.12-5.51-0.11-5.88,0.01
		c-0.01,0.16-0.03,0.34-0.03,0.53c0,3.37,0,6.74,0,10.12c0,2.95,0,5.9,0,8.85c0,0.19,0.02,0.38,0.04,0.6
		C18.73,36.15,20.74,36.15,22.82,36.15z M12.5,36.15c0.02-0.14,0.06-0.26,0.06-0.39c0.12-3.05,0.04-19.39-0.09-19.72
		c-0.39-0.1-5.76-0.09-6.08,0.02C6.28,16.43,6.29,35.8,6.42,36.15C8.42,36.15,10.42,36.15,12.5,36.15z M9.45,13.16
		c1.97,0.01,3.62-1.62,3.64-3.6c0.02-1.96-1.61-3.63-3.59-3.65C7.53,5.87,5.84,7.54,5.84,9.52C5.83,11.48,7.49,13.15,9.45,13.16z"/>
</g>
</svg>
